<svg xmlns="http://www.w3.org/2000/svg" xml:space="preserve" width="2000" height="250" data-id="lg_CQEOcldsDnoJChJgkW" data-version="1" viewBox="0 0 2000 250"><g data-padding="20"><g transform="translate(10 3.888)scale(.9689)"><path fill="#7c7c7c" d="M1273.223 126.084c23.713-2.557 55.488-9.452 66.386-28.022 5.894-10.064 5.087-21.879-2.446-35.112-7.45-13.149-17.042-19.821-28.495-19.821h-.056c-21.156.028-42.923 24.075-57.101 43.59 9.48-21.906 19.182-52.959 8.395-71.612C1254.069 5.015 1243.393-.1 1228.214-.1s-25.742 5.06-31.358 15.068c-10.564 18.653 0 49.984 10.12 72.002-13.706-19.96-35.168-45.092-56.63-45.592-11.37-.223-21.21 6.143-28.995 19.154-7.784 13.066-8.896 24.853-3.197 35.028 10.453 18.765 41.978 26.41 65.664 29.496-24.02 2.168-55.74 8.534-66.61 26.688-5.92 9.813-5.114 21.489 2.364 34.666 7.506 13.233 17.236 20.016 28.884 20.1h.223c21.46 0 43.59-23.658 57.907-42.646-9.98 21.962-20.155 52.737-9.73 71.168 5.643 10.008 16.18 15.068 31.33 15.068 15.207 0 25.882-5.115 31.72-15.207 9.536-16.457 3.058-42.645-5.087-63.634 13.817 17.792 32.97 36.752 51.986 37.03h.445q17.264-.028 28.912-19.46c7.756-12.983 8.812-24.631 3.113-34.611-10.452-18.376-42.09-25.437-66.052-28.134m-53.988-1.445a9.327 9.327 0 1 1 18.654 0 9.313 9.313 0 1 1-18.626 0m89.405-69.584c6.95 0 12.899 4.532 18.153 13.789 5.338 9.396 6.144 16.958 2.502 23.157-11.203 19.182-60.965 23.52-81.565 23.63l-.39-.722c10.453-18.015 39.31-59.826 61.3-59.854m-101.415-34.222c3.42-6.06 10.286-9.007 20.934-9.007 10.814 0 17.792 3.058 21.406 9.258 11.064 19.182-9.536 64.357-19.627 82.454l-1.057-.11c-10.564-18.182-32.442-63.552-21.684-82.595m-78.674 68.944c-3.502-6.282-2.502-13.844 3.03-23.13 5.366-8.979 11.287-13.343 18.07-13.343h.39c21.962.5 49.873 42.923 59.937 61.188l-.39.722c-20.572-.583-70.222-6.032-81.037-25.464m19.96 104.806c-7.172-.084-13.26-4.67-18.597-14.067-5.282-9.285-6.09-16.68-2.502-22.657 10.897-18.154 58.38-21.907 80.508-21.907h2.697l.222.417c-10.564 17.431-40.17 58.492-62.327 58.186m101.025 34.333c-3.586 6.227-10.564 9.257-21.378 9.257-10.675 0-17.514-2.947-20.934-9.007-10.925-19.293 11.676-65.691 22.1-83.344l.25-.028c9.926 17.625 31.193 63.745 19.962 83.122m76.339-46.204c-5.477 9.174-11.593 13.622-18.654 13.622h-.278c-22.296-.306-50.874-41.922-60.993-59.575l.278-.39c20.655.14 71.724 4.532 82.65 23.77 3.446 6.032 2.473 13.427-3.003 22.573"/><rect width="560" height="89.27" x="300.069" y="-332.735" fill="none" rx="0" ry="0" transform="translate(400 413.1)"/><path fill="#fff" d="M715.039 90.97v23.7h.4q3.55-3.23 6.91-4.58 3.36-1.34 6.05-1.34 6.47 0 9.44 3.4 2.96 3.39 2.96 8.92v24.81l5.69 1.58q.23 1.5-.4 2.76-2.13-.15-4.58-.27t-4.66-.12-4.82.12-4.82.27q-.24-1.5.16-2.76 1.42-.32 2.84-.67 1.42-.36 2.69-.91v-23.62q0-3.32-1.03-5.06t-2.76-2.33q-1.74-.59-3.87-.59-2.53 0-5.26 1.26-2.72 1.27-4.54 3.32v27.02l5.29 1.58q.24 1.5-.39 2.76-2.14-.15-4.39-.27t-4.46-.12-4.82.12-4.82.27q-.24-1.5.16-2.76 1.5-.4 2.96-.71 1.46-.32 2.57-.87V95.64l-6.56-.64q-.23-1.58.4-2.76 5.69-.87 10.66-2.13.79.07 1.5.27t1.5.59m44.01 37.52v1.58q0 7.98 3.2 12.36 3.2 4.39 8.73 4.39 2.45 0 4.1-.28 1.66-.28 3.28-1.07t3.68-2.21q1.26.56 1.42 1.9-2.45 2.84-5.85 4.42-3.39 1.58-6.87 1.58-6 0-10.51-2.53-4.5-2.52-7.03-7.26t-2.53-11.3q0-6.72 2.65-11.42t7.11-7.19q4.46-2.48 9.91-2.48 7.04 0 10.39 4.7 3.36 4.7 3.36 12.12v1.03q0 .47-.08 1.03l-1.1.87Zm11.22-16.12q-2.3 0-4.55 1.43-2.25 1.42-3.99 4.26-1.73 2.85-2.37 7.19l17.23-.95q0-6.08-1.31-9-1.3-2.93-5.01-2.93m30.17 38.79q-4.74 0-7.98-2.49-3.23-2.48-3.23-7.54 0-3.95 1.93-6.48 1.94-2.53 5.22-3.91 3.27-1.38 7.3-1.86 4.03-.47 8.22-.39l.08-6.95q.08-4.43-1.66-6.84t-5.29-2.41q-1.98 0-3.8.28-1.81.28-3.63.91l-1.03 8.37q-.63.32-1.74.36-1.1.04-1.73-.04-.71-2.61-1.19-5.21-.47-2.61-.39-5.06 3.71-1.74 7.46-2.45t8.18-.71q4.42 0 7.15 1.42 2.72 1.42 4.03 4.9 1.3 3.48 1.3 9.72v21.17q1.34.63 2.77.91 1.42.27 2.76.67.24 1.5-.39 2.76-1.27.24-3.05.4-1.77.16-3.59.16-2.61 0-4.5-.48l-1.11-4.11h-.32q-1.97 2.06-4.89 3.48-2.93 1.42-6.88 1.42m3.01-4.34q2.21 0 4.74-1.39 2.52-1.38 3.71-3.12v-10.66q-8.14 0-11.46 1.93-3.31 1.94-3.31 6.76 0 3.24 1.73 4.86 1.74 1.62 4.59 1.62m37.52-55.85v54.91l6.08 1.58q.24 1.5-.39 2.76-2.13-.15-4.78-.27t-4.86-.12-4.82.12-4.82.27q-.23-1.5.16-2.76 1.5-.4 2.96-.71 1.46-.32 2.57-.87V95.64l-6.56-.64q-.23-1.58.4-2.76 2.84-.4 5.73-.95 2.88-.55 5.33-1.18.79.07 1.5.27t1.5.59m23.15 60.11q-2.53 0-4.58-.94-2.06-.95-3.2-3.28-1.15-2.33-1.15-6.44v-25.2h-5.53q-.47-.87-.51-1.78t.12-1.78q3.31 0 4.97-.87t2.57-3 1.94-5.77h4.18v8.85h8.3q1.1 2.29 0 4.35h-8.3v23.22q0 3.64.36 5.49.35 1.86 1.22 2.53t2.37.67q1.27 0 2.45-.47 1.19-.47 2.29-1.11 1.11.71 1.19 2.37-.87 1.03-3.16 2.1-2.29 1.06-5.53 1.06m24.01-60.11v23.7h.4q3.55-3.23 6.91-4.58 3.36-1.34 6.04-1.34 6.48 0 9.45 3.4 2.96 3.39 2.96 8.92v24.81l5.69 1.58q.23 1.5-.4 2.76-2.13-.15-4.58-.27t-4.66-.12-4.82.12-4.82.27q-.24-1.5.16-2.76 1.42-.32 2.84-.67 1.42-.36 2.69-.91v-23.62q0-3.32-1.03-5.06t-2.76-2.33q-1.74-.59-3.88-.59-2.52 0-5.25 1.26-2.72 1.27-4.54 3.32v27.02l5.29 1.58q.24 1.5-.39 2.76-2.14-.15-4.39-.27t-4.46-.12-4.82.12-4.82.27q-.24-1.5.16-2.76 1.5-.4 2.96-.71 1.46-.32 2.57-.87V95.64l-6.56-.64q-.24-1.58.4-2.76 5.68-.87 10.66-2.13.79.07 1.5.27t1.5.59m41.48 80.1q-1.34-2.05-2.73-4.74-1.38-2.69-1.77-5.37.47-.4 1.38-.75.91-.36 1.62-.36l5.05 5.93q2.14-2.06 4.39-6.2 2.25-4.15 4.22-9.44l-14.37-35.87-6.09-1.58q-.23-1.5.4-2.77 2.13.08 4.62.24t4.7.16q2.29 0 4.94-.16 2.64-.16 4.86-.24.23 1.51-.16 2.77-1.42.32-2.81.63-1.38.32-2.64.95l6.55 15.88q.4.95 1.19 2.88.79 1.94 1.58 4.39t1.26 4.97h.24q.47-1.81 1.03-4.22.55-2.41 2.05-6.28l6.72-17.62-5.45-1.58q-.24-1.5.39-2.77 2.13.08 3.83.24t3.91.16q2.29 0 3.87-.16t3.8-.24q.23 1.51-.16 2.77-1.42.32-2.89.63-1.46.32-2.56.95l-15.49 39.26q-2.05 5.22-4.58 9.17t-5.29 6.16q-2.77 2.21-5.61 2.21m70.15-80.1v54.91l6.08 1.58q.24 1.5-.39 2.76-2.13-.15-4.78-.27t-4.86-.12-4.82.12-4.82.27q-.23-1.5.16-2.76 1.5-.4 2.96-.71 1.46-.32 2.57-.87V95.64l-6.56-.64q-.23-1.58.4-2.76 2.84-.4 5.73-.95 2.88-.55 5.33-1.18.79.07 1.5.27t1.5.59m23.23 19.43v35.47l5.29 1.58q.24 1.5-.4 2.76-2.13-.15-4.38-.27t-4.46-.12q-2.22 0-4.82.12-2.61.12-4.82.27-.24-1.5.16-2.76 1.5-.4 2.96-.71 1.46-.32 2.57-.87v-30.81l-6.56-.63q-.24-1.58.39-2.77 2.85-.39 5.73-.95 2.89-.55 5.33-1.18.79.08 1.51.28.71.19 1.5.59m-5.3-8.06q-1.34 0-2.45-.87-1.1-.87-1.73-2.13-.64-1.27-.64-2.37 0-1.03.87-2.1.87-1.06 2.18-1.81 1.3-.75 2.56-.75 1.43 0 2.53.91 1.11.9 1.7 2.13.59 1.22.59 2.33 0 1.03-.83 2.13-.83 1.11-2.13 1.82t-2.65.71m37.84-1.5-.86-6.95q-1.51-.63-3.09-.63-3.16 0-4.66 3.27-1.5 3.28-1.5 9.05v6.71h11.06q0 .95-.19 2.14-.2 1.18-.6 1.81h-10.27v29.63l7.67 1.58q.23 1.5-.4 2.76-1.42-.07-3.51-.15l-4.15-.16q-2.06-.08-3.56-.08-2.21 0-4.82.12-2.6.12-4.82.27-.23-1.5.16-2.76 1.42-.32 2.85-.67 1.42-.36 2.68-.91v-29.63h-5.13q-.08-.79.2-2.17.27-1.38.59-1.78h4.34v-4.74q0-8.05 3.72-12.71 3.71-4.67 9.71-4.67 3.16 0 5.18.52 2.01.51 4.14 1.85-.23 2.22-.59 4.39-.35 2.17-.91 4.23-.55.07-1.58.03-1.02-.03-1.66-.35m13.36 27.65v1.58q0 7.98 3.2 12.36 3.19 4.39 8.72 4.39 2.45 0 4.11-.28t3.28-1.07 3.67-2.21q1.27.56 1.43 1.9-2.45 2.84-5.85 4.42t-6.87 1.58q-6.01 0-10.51-2.53-4.5-2.52-7.03-7.26t-2.53-11.3q0-6.72 2.65-11.42 2.64-4.7 7.11-7.19 4.46-2.48 9.91-2.48 7.03 0 10.39 4.7t3.36 12.12v1.03q0 .47-.08 1.03l-1.11.87Zm11.21-16.12q-2.29 0-4.54 1.43-2.25 1.42-3.99 4.26-1.74 2.85-2.37 7.19l17.22-.95q0-6.08-1.3-9-1.3-2.93-5.02-2.93m24.41 25.6.79 8.37q1.66.79 3.36 1.11t3.83.32q3.24 0 5.77-1.43 2.53-1.42 2.53-4.58 0-1.66-.91-3.08t-3.16-2.92-6.44-3.4q-4.58-2.13-7.11-4.94-2.53-2.8-2.53-7.78 0-4.03 2.02-6.36 2.01-2.33 5.21-3.36 3.2-1.02 6.76-1.02 3.08 0 6.12.59t5.41 1.62q0 .39.04.87.04.47.04.87 0 4.82-1.5 9.08-.32.08-.59.12-.28.04-.6.04-1.18 0-2.37-.47l-1.26-8.54q-1.03-.31-2.37-.51t-2.69-.2q-1.81 0-3.59.52-1.78.51-2.92 1.73-1.15 1.23-1.15 3.44 0 1.5.67 2.85.67 1.34 2.69 2.8 2.01 1.46 6.04 3.44 6.32 3 8.89 5.8 2.57 2.81 2.57 6.99 0 4.03-2.14 6.56-2.13 2.53-5.57 3.71-3.43 1.19-7.3 1.19-3.72 0-6.92-.59-3.2-.6-6.43-2.57v-1.34q0-2.14.27-4.39.28-2.25 1.15-4.86.47-.08.79-.08 1.42 0 2.6.4m42.35 13.11q-2.53 0-4.58-.94-2.06-.95-3.2-3.28-1.15-2.33-1.15-6.44v-25.2h-5.53q-.47-.87-.51-1.78t.12-1.78q3.31 0 4.97-.87t2.57-3 1.94-5.77h4.18v8.85h8.3q1.1 2.29 0 4.35h-8.3v23.22q0 3.64.36 5.49.35 1.86 1.22 2.53t2.37.67q1.27 0 2.45-.47 1.19-.47 2.29-1.11 1.11.71 1.19 2.37-.87 1.03-3.16 2.1-2.29 1.06-5.53 1.06m18.25 19.99q-1.35-2.05-2.73-4.74t-1.78-5.37q.48-.4 1.39-.75.91-.36 1.62-.36l5.05 5.93q2.14-2.06 4.39-6.2 2.25-4.15 4.22-9.44l-14.37-35.87-6.09-1.58q-.23-1.5.4-2.77 2.13.08 4.62.24t4.7.16q2.29 0 4.94-.16 2.64-.16 4.86-.24.23 1.51-.16 2.77-1.42.32-2.81.63-1.38.32-2.64.95l6.55 15.88q.4.95 1.19 2.88.79 1.94 1.58 4.39t1.26 4.97h.24q.47-1.81 1.03-4.22.55-2.41 2.05-6.28l6.72-17.62-5.46-1.58q-.23-1.5.4-2.77 2.13.08 3.83.24t3.91.16q2.29 0 3.87-.16t3.79-.24q.24 1.51-.15 2.77-1.43.32-2.89.63-1.46.32-2.56.95l-15.49 39.26q-2.05 5.22-4.58 9.17t-5.29 6.16q-2.77 2.21-5.61 2.21m51.43-80.1v54.91l6.08 1.58q.24 1.5-.4 2.76-2.13-.15-4.77-.27-2.65-.12-4.86-.12-2.22 0-4.82.12-2.61.12-4.82.27-.24-1.5.16-2.76 1.5-.4 2.96-.71 1.46-.32 2.57-.87V95.64l-6.56-.64q-.24-1.58.39-2.76 2.85-.4 5.73-.95 2.89-.55 5.33-1.18.79.07 1.51.27.71.2 1.5.59m18.4 37.52v1.58q0 7.98 3.2 12.36 3.2 4.39 8.73 4.39 2.45 0 4.11-.28t3.28-1.07 3.67-2.21q1.27.56 1.42 1.9-2.44 2.84-5.84 4.42t-6.87 1.58q-6.01 0-10.51-2.53-4.5-2.52-7.03-7.26t-2.53-11.3q0-6.72 2.65-11.42 2.64-4.7 7.11-7.19 4.46-2.48 9.91-2.48 7.03 0 10.39 4.7t3.36 12.12v1.03q0 .47-.08 1.03l-1.11.87Zm11.22-16.12q-2.29 0-4.54 1.43-2.25 1.42-3.99 4.26-1.74 2.85-2.37 7.19l17.22-.95q0-6.08-1.3-9-1.31-2.93-5.02-2.93"/></g><path fill="transparent" stroke="transparent" d="M678.5 0h643v250h-643z"/></g></svg>